<?xml version="1.0" encoding="UTF-8"?>
<!-- Created with Inkscape (http://www.inkscape.org/) -->
<svg xmlns:dc="http://purl.org/dc/elements/1.1/" xmlns="http://www.w3.org/2000/svg" xmlns:svg="http://www.w3.org/2000/svg" xmlns:inkscape="http://www.inkscape.org/namespaces/inkscape" xmlns:rdf="http://www.w3.org/1999/02/22-rdf-syntax-ns#" xmlns:sodipodi="http://sodipodi.sourceforge.net/DTD/sodipodi-0.dtd" xmlns:cc="http://creativecommons.org/ns#" id="svg2" version="1.1" inkscape:version="0.48.3.1 r9886" width="875" height="375" xml:space="preserve" sodipodi:docname="logo.svg" inkscape:export-filename="/home/wolf/Source/FunDocs/icon.png" inkscape:export-xdpi="19.4" inkscape:export-ydpi="19.4">
    <metadata id="metadata8">
        <rdf:RDF>
            <cc:Work rdf:about="">
                <dc:format>image/svg+xml</dc:format>
                <dc:type rdf:resource="http://purl.org/dc/dcmitype/StillImage"/>
                <dc:title/>
            </cc:Work>
        </rdf:RDF>
    </metadata>
    <defs id="defs6">
        <clipPath clipPathUnits="userSpaceOnUse" id="clipPath16">
            <path d="M 0,300 700,300 700,0 0,0 0,300 z" id="path18"/>
        </clipPath>
    </defs>
    <sodipodi:namedview pagecolor="#ffffff" bordercolor="#666666" borderopacity="1" objecttolerance="10" gridtolerance="10" guidetolerance="10" inkscape:pageopacity="0" inkscape:pageshadow="2" inkscape:window-width="1381" inkscape:window-height="876" id="namedview4" showgrid="false" inkscape:zoom="0.38742857" inkscape:cx="130.34661" inkscape:cy="187.5" inkscape:window-x="59" inkscape:window-y="24" inkscape:window-maximized="1" inkscape:current-layer="g10"/>
    <g id="g10" inkscape:groupmode="layer" inkscape:label="existdb" transform="matrix(1.25,0,0,-1.25,0,375)">
        <g id="g3513" inkscape:export-filename="/home/wolf/Source/FunDocs/icon.png" inkscape:export-xdpi="19.040001" inkscape:export-ydpi="19.040001">
            <g transform="translate(-72,0)" id="g3284">
                <g id="g20" transform="translate(182.488,231.7015)">
                    <path d="m 0,0 c 0,-8.24 -6.68,-14.92 -14.92,-14.92 -8.238,0 -14.918,6.68 -14.918,14.92 0,8.239 6.68,14.919 14.918,14.919 C -6.68,14.919 0,8.239 0,0" style="fill:#737577;fill-opacity:1;fill-rule:nonzero;stroke:none" id="path22" inkscape:connector-curvature="0"/>
                </g>
                <g id="g24" transform="translate(203.4567,236.137)">
                    <path d="m 0,0 c 0,-4.009 -3.25,-7.258 -7.26,-7.258 -4.008,0 -7.258,3.249 -7.258,7.258 0,4.008 3.25,7.258 7.258,7.258 C -3.25,7.258 0,4.008 0,0" style="fill:#858789;fill-opacity:1;fill-rule:nonzero;stroke:none" id="path26" inkscape:connector-curvature="0"/>
                </g>
                <g id="g28" transform="translate(199.4235,209.9266)">
                    <path d="m 0,0 c 0,-5.121 -4.152,-9.273 -9.275,-9.273 -5.121,0 -9.274,4.152 -9.274,9.273 0,5.123 4.153,9.275 9.274,9.275 C -4.152,9.275 0,5.123 0,0" style="fill:#858789;fill-opacity:1;fill-rule:nonzero;stroke:none" id="path30" inkscape:connector-curvature="0"/>
                </g>
                <g id="g32" transform="translate(147.8103,167.1844)">
                    <path d="m 0,0 c 0,-6.457 -5.236,-11.693 -11.693,-11.693 -6.459,0 -11.694,5.236 -11.694,11.693 0,6.459 5.235,11.693 11.694,11.693 C -5.236,11.693 0,6.459 0,0" style="fill:#858789;fill-opacity:1;fill-rule:nonzero;stroke:none" id="path34" inkscape:connector-curvature="0"/>
                </g>
                <g id="g36" transform="translate(127.8435,247.8626)">
                    <path d="m 0,0 c 0,3.341 2.707,6.048 6.047,6.048 3.342,0 6.049,-2.707 6.049,-6.048 0,-3.341 -2.707,-6.048 -6.049,-6.048 C 2.707,-6.048 0,-3.341 0,0" style="fill:#858789;fill-opacity:1;fill-rule:nonzero;stroke:none" id="path38" inkscape:connector-curvature="0"/>
                </g>
                <g id="g40" transform="translate(146.197,195.8133)">
                    <path d="m 0,0 c 0,-2.227 -1.805,-4.031 -4.031,-4.031 -2.227,0 -4.033,1.804 -4.033,4.031 0,2.229 1.806,4.033 4.033,4.033 C -1.805,4.033 0,2.229 0,0" style="fill:#858789;fill-opacity:1;fill-rule:nonzero;stroke:none" id="path42" inkscape:connector-curvature="0"/>
                </g>
                <g id="g44" transform="translate(235.9079,157.2977)">
                    <path d="m 0,0 c 0,-3.117 -2.527,-5.645 -5.645,-5.645 -3.119,0 -5.646,2.528 -5.646,5.645 0,3.119 2.527,5.646 5.646,5.646 C -2.527,5.646 0,3.119 0,0" style="fill:#858789;fill-opacity:1;fill-rule:nonzero;stroke:none" id="path46" inkscape:connector-curvature="0"/>
                </g>
                <g id="g64" transform="translate(188.1325,191.782)">
                    <path d="m 0,0 c 0,-4.9 -3.971,-8.871 -8.871,-8.871 -4.899,0 -8.871,3.971 -8.871,8.871 0,4.898 3.972,8.871 8.871,8.871 C -3.971,8.871 0,4.898 0,0" style="fill:#4d4c4e;fill-opacity:1;fill-rule:nonzero;stroke:none" id="path66" inkscape:connector-curvature="0"/>
                </g>
                <g id="g68" transform="translate(211.5192,174.0398)">
                    <path d="m 0,0 c 0,-5.789 -4.693,-10.482 -10.482,-10.482 -5.791,0 -10.485,4.693 -10.485,10.482 0,5.791 4.694,10.484 10.485,10.484 C -4.693,10.484 0,5.791 0,0" style="fill:#4d4c4e;fill-opacity:1;fill-rule:nonzero;stroke:none" id="path70" inkscape:connector-curvature="0"/>
                </g>
                <g id="g72" transform="translate(143.779,264.3626)">
                    <path d="m 0,0 c 0,-3.563 -2.889,-6.451 -6.453,-6.451 -3.563,0 -6.451,2.888 -6.451,6.451 0,3.563 2.888,6.452 6.451,6.452 C -2.889,6.452 0,3.563 0,0" style="fill:#4d4c4e;fill-opacity:1;fill-rule:nonzero;stroke:none" id="path74" inkscape:connector-curvature="0"/>
                </g>
                <g id="g76" transform="translate(125.2302,156.2977)">
                    <path d="m 0,0 c 0,-3.117 -2.527,-5.645 -5.645,-5.645 -3.119,0 -5.646,2.528 -5.646,5.645 0,3.119 2.527,5.646 5.646,5.646 C -2.527,5.646 0,3.119 0,0" style="fill:#4d4c4e;fill-opacity:1;fill-rule:nonzero;stroke:none" id="path78" inkscape:connector-curvature="0"/>
                </g>
                <g id="g80" transform="translate(197.0056,252.6692)">
                    <path d="m 0,0 c 0,-3.341 -2.709,-6.049 -6.049,-6.049 -3.342,0 -6.049,2.708 -6.049,6.049 0,3.341 2.707,6.048 6.049,6.048 C -2.709,6.048 0,3.341 0,0" style="fill:#4d4c4e;fill-opacity:1;fill-rule:nonzero;stroke:none" id="path82" inkscape:connector-curvature="0"/>
                </g>
                <g id="g84" transform="translate(159.1013,252.6683)">
                    <path d="m 0,0 c 0,-4.676 -3.791,-8.467 -8.469,-8.467 -4.676,0 -8.467,3.791 -8.467,8.467 0,4.678 3.791,8.469 8.467,8.469 C -3.791,8.469 0,4.678 0,0" style="fill:#0088cc;fill-opacity:1;fill-rule:nonzero;stroke:none" id="path86" inkscape:connector-curvature="0"/>
                </g>
                <g id="g88" transform="translate(148.6169,234.5237)">
                    <path d="m 0,0 c 0,-3.117 -2.527,-5.645 -5.645,-5.645 -3.119,0 -5.646,2.528 -5.646,5.645 0,3.117 2.527,5.645 5.646,5.645 C -2.527,5.645 0,3.117 0,0" style="fill:#0088cc;fill-opacity:1;fill-rule:nonzero;stroke:none" id="path90" inkscape:connector-curvature="0"/>
                </g>
                <g id="g100" transform="translate(235.7126,267.9915)">
                    <path d="m 0,0 c 0,-3.341 -2.707,-6.048 -6.047,-6.048 -3.342,0 -6.049,2.707 -6.049,6.048 0,3.341 2.707,6.048 6.049,6.048 C -2.707,6.048 0,3.341 0,0" style="fill:#0088cc;fill-opacity:1;fill-rule:nonzero;stroke:none" id="path102" inkscape:connector-curvature="0"/>
                </g>
                <g id="g104" transform="translate(222.8103,253.8792)">
                    <path d="m 0,0 c 0,-6.236 -5.055,-11.291 -11.289,-11.291 -6.236,0 -11.291,5.055 -11.291,11.291 0,6.235 5.055,11.29 11.291,11.29 C -5.055,11.29 0,6.235 0,0" style="fill:#0088cc;fill-opacity:1;fill-rule:nonzero;stroke:none" id="path106" inkscape:connector-curvature="0"/>
                </g>
                <g id="g108" transform="translate(166.3591,205.491)">
                    <path d="m 0,0 c 0,-4.453 -3.611,-8.064 -8.064,-8.064 -4.456,0 -8.065,3.611 -8.065,8.064 0,4.455 3.609,8.064 8.065,8.064 C -3.611,8.064 0,4.455 0,0" style="fill:#0088cc;fill-opacity:1;fill-rule:nonzero;stroke:none" id="path110" inkscape:connector-curvature="0"/>
                </g>
                <g id="g112" transform="translate(159.1013,184.5242)">
                    <path d="m 0,0 c 0,-4.01 -3.25,-7.258 -7.258,-7.258 -4.01,0 -7.258,3.248 -7.258,7.258 0,4.008 3.248,7.258 7.258,7.258 C -3.25,7.258 0,4.008 0,0" style="fill:#0088cc;fill-opacity:1;fill-rule:nonzero;stroke:none" id="path114" inkscape:connector-curvature="0"/>
                </g>
                <g id="g116" transform="translate(217.9704,194.202)">
                    <path d="m 0,0 c 0,-4.01 -3.248,-7.258 -7.258,-7.258 -4.008,0 -7.258,3.248 -7.258,7.258 0,4.008 3.25,7.258 7.258,7.258 C -3.248,7.258 0,4.008 0,0" style="fill:#0088cc;fill-opacity:1;fill-rule:nonzero;stroke:none" id="path118" inkscape:connector-curvature="0"/>
                </g>
                <g id="g120" transform="translate(229.2614,174.0398)">
                    <path d="m 0,0 c 0,-3.563 -2.889,-6.451 -6.451,-6.451 -3.563,0 -6.451,2.888 -6.451,6.451 0,3.563 2.888,6.451 6.451,6.451 C -2.889,6.451 0,3.563 0,0" style="fill:#0088cc;fill-opacity:1;fill-rule:nonzero;stroke:none" id="path122" inkscape:connector-curvature="0"/>
                </g>
                <g id="g124" transform="translate(126.6501,267.1683)">
                    <path d="m 0,0 c 0,-2.227 -1.807,-4.031 -4.033,-4.031 -2.227,0 -4.031,1.804 -4.031,4.031 0,2.228 1.804,4.033 4.031,4.033 C -1.807,4.033 0,2.228 0,0" style="fill:#0088cc;fill-opacity:1;fill-rule:nonzero;stroke:none" id="path126" inkscape:connector-curvature="0"/>
                </g>
                <g id="g128" transform="translate(125.2302,278.0716)">
                    <path d="m 0,0 c 0,-2.227 -1.805,-4.031 -4.033,-4.031 -2.227,0 -4.031,1.804 -4.031,4.031 0,2.228 1.804,4.032 4.031,4.032 C -1.805,4.032 0,2.228 0,0" style="fill:#0088cc;fill-opacity:1;fill-rule:nonzero;stroke:none" id="path130" inkscape:connector-curvature="0"/>
                </g>
                <g id="g132" transform="translate(138.1325,187.7488)">
                    <path d="m 0,0 c 0,-2.672 -2.166,-4.838 -4.838,-4.838 -2.674,0 -4.84,2.166 -4.84,4.838 0,2.674 2.166,4.84 4.84,4.84 C -2.166,4.84 0,2.674 0,0" style="fill:#0088cc;fill-opacity:1;fill-rule:nonzero;stroke:none" id="path134" inkscape:connector-curvature="0"/>
                </g>
            </g>
            <text transform="scale(1.0245222,-0.97606474)" sodipodi:linespacing="125%" id="text3228" y="-182.35641" x="260.19299" style="font-size:120px;font-style:normal;font-variant:normal;font-weight:bold;font-stretch:normal;text-align:start;line-height:125%;letter-spacing:0px;word-spacing:0px;writing-mode:lr-tb;text-anchor:start;fill:#4d4c4e;fill-opacity:1;stroke:none;font-family:Quicksand;-inkscape-font-specification:Quicksand Bold" xml:space="preserve">
                <tspan y="-182.35641" x="260.19299" id="tspan3230" sodipodi:role="line">uery</tspan>
            </text>
            <text transform="scale(1.0245222,-0.97606475)" sodipodi:linespacing="125%" id="text3228-2" y="-52.667454" x="234.80371" style="font-size:118.02494812px;font-style:normal;font-variant:normal;font-weight:bold;font-stretch:normal;text-align:start;line-height:125%;letter-spacing:0px;word-spacing:0px;writing-mode:lr-tb;text-anchor:start;fill:#4d4c4e;fill-opacity:1;stroke:none;font-family:Quicksand;-inkscape-font-specification:Quicksand Bold" xml:space="preserve">
                <tspan y="-52.667454" x="234.80371" id="tspan3253" sodipodi:role="line">Docs</tspan>
            </text>
            <text transform="scale(1.0245222,-0.97606475)" sodipodi:linespacing="125%" id="text3228-2-7" y="-52.313377" x="94.288994" style="font-size:118.02494049px;font-style:normal;font-variant:normal;font-weight:bold;font-stretch:normal;text-align:start;line-height:125%;letter-spacing:0px;word-spacing:0px;writing-mode:lr-tb;text-anchor:start;fill:#0088cc;fill-opacity:1;stroke:none;font-family:Quicksand;-inkscape-font-specification:Quicksand Bold" xml:space="preserve">
                <tspan y="-52.313377" x="94.288994" id="tspan3276" sodipodi:role="line">Fn</tspan>
            </text>
            <text transform="scale(1.0245222,-0.97606474)" sodipodi:linespacing="125%" id="text3228-4" y="-181.39641" x="156.21605" style="font-size:120px;font-style:normal;font-variant:normal;font-weight:bold;font-stretch:normal;text-align:start;line-height:125%;letter-spacing:0px;word-spacing:0px;writing-mode:lr-tb;text-anchor:start;fill:#0088cc;fill-opacity:1;stroke:none;font-family:Quicksand;-inkscape-font-specification:Quicksand Bold" xml:space="preserve">
                <tspan y="-181.39641" x="156.21605" id="tspan3230-8" sodipodi:role="line">Q</tspan>
            </text>
</g>
    </g>
</svg>